<svg version="1.1" id="Layer_1" xmlns="http://www.w3.org/2000/svg" xmlns:xlink="http://www.w3.org/1999/xlink" x="0px" y="0px"
	 width="100%" viewBox="0 0 1063 980" enable-background="new 0 0 1063 980" xml:space="preserve">
<path fill="#FEFEFE" opacity="1.000000" stroke="none" 
	d="
M1.000002,371.000000 
	C1.000000,247.731415 1.000000,124.462830 1.000000,1.000000 
	C145.692444,1.000000 290.384949,1.000000 435.358246,1.335130 
	C420.820709,4.663297 409.162506,12.333180 399.825043,24.312637 
	C379.913940,49.857391 361.976135,76.692749 347.698578,105.730644 
	C338.250793,124.945641 329.615082,144.670609 322.259857,164.768936 
	C316.338287,180.949707 322.662964,188.310135 339.991119,188.351593 
	C350.814423,188.377502 361.638519,188.032578 372.461945,188.050369 
	C399.948242,188.095566 427.434326,188.285004 454.920654,188.352097 
	C477.066528,188.406174 499.212585,188.365326 521.358582,188.367813 
	C528.523193,188.368622 535.691345,188.519302 542.851685,188.345398 
	C557.232178,187.996109 563.178711,180.570038 560.056274,166.529160 
	C558.873718,161.211884 556.934937,156.033859 555.017456,150.913467 
	C538.885742,107.836739 520.278992,65.946510 495.442017,27.049623 
	C489.735687,18.113035 482.304565,11.133457 472.608002,6.827353 
	C467.541840,4.577540 462.211182,2.923252 457.000000,0.999997 
	C659.276428,1.000000 861.552795,1.000000 1064.000000,1.000000 
	C1064.000000,299.359161 1064.000000,597.718323 1063.656128,896.376526 
	C1060.657593,883.556641 1054.199097,872.499146 1044.939697,862.996765 
	C1027.290527,844.884521 1009.726685,826.687012 991.908020,808.742798 
	C955.768677,772.348694 919.537476,736.044983 883.165833,699.883423 
	C879.849365,696.586182 875.552124,693.739380 871.177490,692.149048 
	C860.591614,688.300781 852.506531,693.849792 845.373169,700.848267 
	C824.106812,721.712402 802.927795,742.666138 781.792542,763.663147 
	C768.286926,777.080322 767.023865,789.229065 779.345154,803.664856 
	C793.684448,820.464966 808.694153,836.759949 824.270508,852.421143 
	C846.444519,874.715881 869.326416,896.310059 892.044617,918.058594 
	C909.340759,934.616394 926.869629,950.930908 944.260864,967.389648 
	C952.108521,974.816528 961.895020,978.214172 972.000000,981.000000 
	C648.425720,981.000000 324.851471,981.000000 1.000000,981.000000 
	C1.000000,811.640930 1.000000,642.281738 1.377569,472.586853 
	C2.104979,473.873688 2.549061,475.482300 2.790646,477.120758 
	C6.997543,505.652496 12.784091,533.824646 22.294188,561.114563 
	C29.484224,581.746887 38.086720,601.740906 50.597038,619.805298 
	C56.929253,628.948853 65.691597,633.237671 76.982666,633.202698 
	C126.975616,633.048157 176.969421,633.181763 226.962570,633.062317 
	C231.218277,633.052185 235.592621,632.382141 239.696213,631.242432 
	C245.332550,629.676758 247.991898,625.388306 247.899933,619.565491 
	C247.858124,616.917664 247.826538,614.183838 247.178925,611.644958 
	C242.038940,591.494629 237.196701,571.251770 231.365784,551.299561 
	C226.887268,535.974976 221.336380,521.036987 221.344376,504.720367 
	C221.349426,494.426605 220.865204,484.091309 219.858459,473.847595 
	C218.182693,456.796753 209.271240,446.014801 192.688004,442.226379 
	C183.384918,440.101044 173.567352,439.088287 164.033020,439.362579 
	C146.607605,439.863861 129.221741,441.711914 111.815002,442.936218 
	C110.215202,443.048706 107.349319,443.101349 107.168312,442.524139 
	C106.020569,438.864380 103.203629,440.137238 100.998100,440.123352 
	C75.858696,439.965057 50.717640,440.003357 25.579428,439.750458 
	C15.158691,439.645660 6.158647,441.819824 1.000000,452.000000 
	C1.000000,429.974182 1.000000,407.948334 1.345843,385.592621 
	C3.696795,394.720032 9.090682,401.107239 18.814962,402.739014 
	C24.122042,403.629608 29.613588,403.420898 35.300026,403.782349 
	C36.130466,403.739777 36.682827,403.622772 37.582420,403.571960 
	C38.609638,403.470367 39.289631,403.302673 40.235931,403.231049 
	C40.680550,403.265198 40.858849,403.203308 41.486675,403.276825 
	C62.946087,403.318481 83.955971,403.224731 105.307312,403.224915 
	C106.111671,403.252899 106.574585,403.187012 107.394623,403.277069 
	C108.777657,403.507843 109.803566,403.582611 111.085632,403.744446 
	C111.517036,403.788818 111.692276,403.746155 112.271225,403.803802 
	C133.399643,403.781738 154.124329,403.659363 175.095459,403.653564 
	C175.520645,403.737213 175.699387,403.704254 176.277328,403.789429 
	C181.506577,403.910614 186.336639,403.917816 191.166687,403.915802 
	C204.988297,403.910034 211.531082,398.354523 213.045731,384.674377 
	C216.896255,349.896667 223.068329,315.564972 232.299744,281.802887 
	C235.545181,269.933319 239.479782,258.218811 242.061737,246.210327 
	C244.814651,233.406662 239.374802,226.732880 226.364258,225.928864 
	C218.761353,225.459030 211.104767,225.892609 203.472656,225.854767 
	C161.519272,225.646683 119.564941,225.532562 77.613129,225.146652 
	C58.153477,224.967636 44.845078,233.581543 36.746861,251.238388 
	C22.464243,282.379303 12.257068,314.768280 5.787157,348.380371 
	C4.330673,355.947052 2.602894,363.461517 1.000002,371.000000 
M369.064636,666.461304 
	C359.699219,666.610901 350.333832,666.760437 340.146637,666.769165 
	C327.225128,668.207520 323.357147,674.487061 327.930817,686.667664 
	C328.807678,689.002930 329.750031,691.321167 330.803711,693.581299 
	C342.604065,718.893066 353.540039,744.660767 366.517029,769.355408 
	C378.255035,791.692322 391.676880,813.212036 405.406982,834.411560 
	C415.056183,849.310120 430.414856,856.077393 447.832214,855.622742 
	C470.430389,855.032715 487.506653,844.304199 497.499695,823.603943 
	C506.893829,804.144348 516.123108,784.601501 525.136475,764.962891 
	C531.793335,750.458679 538.557312,735.958191 544.209778,721.052612 
	C548.916565,708.640625 545.398621,702.876648 532.567139,700.021912 
	C521.045898,697.458618 509.122620,696.488586 497.792114,693.327026 
	C476.514404,687.389893 455.532898,680.389771 434.434906,673.810364 
	C415.714539,667.972351 396.750366,664.043701 376.145081,666.273071 
	C374.777710,666.414795 373.410309,666.556519 371.366547,666.408447 
	C370.898743,666.512512 370.430939,666.616516 369.064636,666.461304 
M813.681274,403.753174 
	C813.849670,403.676056 814.018005,403.598969 815.095947,403.616638 
	C818.421692,403.563721 821.747192,403.485687 825.073120,403.462189 
	C841.368164,403.347015 857.663330,403.246368 874.788086,403.360291 
	C876.203491,403.273987 877.618958,403.187714 879.869446,403.247406 
	C893.671204,401.955017 899.484619,395.438782 899.052795,381.689514 
	C899.000610,380.028870 898.828186,378.363159 898.583618,376.718811 
	C894.539001,349.524139 889.238708,322.595459 880.841675,296.372101 
	C874.541748,276.697998 867.422363,257.317261 856.794861,239.487198 
	C851.070251,229.882919 842.409790,225.277893 831.021118,225.301727 
	C775.023804,225.418930 719.026184,225.352234 663.028625,225.371628 
	C661.046448,225.372314 659.064392,225.595398 656.294983,225.481216 
	C655.474426,225.510941 654.653931,225.540680 653.062378,225.445160 
	C651.465332,228.615524 649.868347,231.785904 648.202759,235.092422 
	C649.944641,236.104080 651.068787,236.775970 652.210205,237.417114 
	C688.641846,257.881317 717.665833,286.028748 739.526428,321.603882 
	C751.928650,341.786804 761.645630,363.215759 769.151733,385.661255 
	C772.648438,396.117401 779.455017,402.675354 790.747192,403.372650 
	C798.186890,403.832031 805.669983,403.588806 813.681274,403.753174 
M403.042664,611.470154 
	C456.802490,655.785461 517.800659,670.960938 585.685791,655.219421 
	C627.518127,645.519226 662.593201,623.323364 691.492249,591.725281 
	C721.920349,558.455261 741.023499,519.648926 744.570557,474.321991 
	C748.583130,423.047638 735.931091,375.728241 706.202209,333.750916 
	C669.316040,281.667328 619.201111,250.843430 554.834778,247.232544 
	C488.548431,243.513962 430.966370,265.346680 387.178192,315.706390 
	C331.698944,379.511658 319.593994,452.960144 347.472382,532.519226 
	C358.343109,563.541992 377.892914,589.238403 403.042664,611.470154 
M541.256958,10.690823 
	C536.815125,16.448746 536.871399,20.267324 540.785034,27.601788 
	C550.883911,46.527874 561.402222,65.260696 570.683289,84.584496 
	C581.039917,106.147713 589.849670,128.450058 600.024109,150.105835 
	C608.106506,167.308823 619.996338,180.850891 639.972107,184.531540 
	C645.686584,185.584488 651.473389,186.717926 657.251465,186.866837 
	C677.204834,187.381073 697.168396,187.607849 717.129150,187.700348 
	C744.602112,187.827667 772.076050,187.763596 799.549377,187.689270 
	C802.518921,187.681244 805.558350,187.360779 808.441284,186.668671 
	C815.546387,184.962967 817.898865,180.526230 814.761597,174.029587 
	C812.832581,170.035049 810.343323,166.108170 807.329529,162.874115 
	C790.668945,144.995621 774.646790,126.397057 756.791016,109.780594 
	C699.183655,56.171680 631.202820,22.689863 553.792725,8.558915 
	C550.036316,7.873197 545.841797,9.587350 541.256958,10.690823 
M302.989655,19.455187 
	C237.625366,39.433609 179.274902,71.490135 130.752411,120.178734 
	C117.138100,133.839661 104.200264,148.183655 91.178749,162.421600 
	C86.633453,167.391495 83.810059,173.267273 87.044876,180.217773 
	C90.280701,187.170456 96.357414,188.580948 103.286240,188.375351 
	C112.576897,188.099670 121.871613,187.787994 131.164474,187.791168 
	C164.468964,187.802597 197.773407,187.939804 231.077866,188.031006 
	C233.742432,188.038300 236.418045,187.903778 239.069717,188.095444 
	C257.804962,189.449661 268.086700,183.212204 274.894287,166.184952 
	C291.019714,125.851624 312.058777,88.175026 336.605804,52.422676 
	C342.908600,43.242725 349.730133,34.417942 356.350830,25.457685 
	C359.198547,21.603655 360.752319,17.567577 358.158020,13.004352 
	C355.486389,8.305202 351.187225,7.241957 346.191162,8.046857 
	C344.881287,8.257892 343.581421,8.561987 342.298309,8.903589 
	C329.447327,12.324872 316.600830,15.762928 302.989655,19.455187 
M132.472717,669.849854 
	C121.991112,670.065918 111.458214,669.715698 101.042488,670.659119 
	C90.850327,671.582214 88.062286,676.822632 93.100182,685.705566 
	C97.418312,693.319275 102.663338,700.545837 108.347458,707.220642 
	C126.135323,728.108765 147.543365,745.170471 168.664902,762.431396 
	C218.157867,802.878113 274.781952,828.699402 336.832916,843.036438 
	C348.073822,845.633728 359.417480,847.786316 371.700623,850.350220 
	C370.449036,848.127991 369.852692,846.968384 369.165833,845.865112 
	C361.866241,834.139771 354.540649,822.430603 347.244476,810.703186 
	C320.608459,767.890076 294.959259,724.513672 273.168091,678.986084 
	C270.087555,672.549988 265.318970,669.291138 258.715881,668.201965 
	C255.612732,667.690063 252.410004,667.537537 249.259277,667.595520 
	C210.659149,668.306702 172.060318,669.087219 132.472717,669.849854 
M776.926270,471.471497 
	C776.266174,474.391418 775.597961,477.309570 774.947144,480.231567 
	C770.668945,499.439972 769.067139,519.279358 758.535522,536.871521 
	C753.508301,545.268921 752.209290,555.425354 752.502014,565.355408 
	C753.057678,584.209534 761.473328,599.739624 774.716858,612.422058 
	C788.021301,625.162903 802.031860,637.194641 816.115295,649.084351 
	C826.145874,657.552429 834.976807,656.234314 843.165344,645.934021 
	C844.814575,643.859375 846.386108,641.650696 847.574768,639.292725 
	C867.610779,599.544739 885.047546,558.789246 893.549927,514.823669 
	C896.670776,498.685638 899.486145,482.376831 900.717896,466.016235 
	C901.968018,449.411163 895.849121,443.607086 879.233276,442.004333 
	C878.736938,441.956482 878.235840,441.942993 877.736877,441.941040 
	C855.295166,441.852966 832.835938,441.181671 810.416992,441.854736 
	C789.815247,442.473267 783.234436,448.574036 777.688171,468.763550 
	C777.511902,469.405426 777.309143,470.040009 776.926270,471.471497 
M686.377625,794.888245 
	C688.213562,793.745728 690.143799,792.729675 691.870361,791.440674 
	C705.041321,781.608521 718.658508,772.295166 731.161865,761.672668 
	C741.104980,753.225342 741.840332,742.844849 735.382690,731.528564 
	C733.740723,728.651245 732.052246,725.673157 729.802612,723.291809 
	C719.187378,712.054932 708.990967,700.315308 697.502258,690.031860 
	C668.655334,664.211365 624.977051,667.510620 599.616150,696.635498 
	C591.127563,706.383911 586.690918,718.238708 581.825378,729.889343 
	C568.437073,761.947571 556.399353,794.598022 539.875549,825.280884 
	C538.308838,828.190002 536.863037,831.231567 535.880615,834.374146 
	C533.770630,841.123962 536.392395,844.898376 543.336731,844.827942 
	C549.303101,844.767456 555.392456,844.689636 561.204773,843.516296 
	C605.468567,834.580811 646.665466,817.616638 686.377625,794.888245 
M272.733826,333.179993 
	C270.468231,350.162018 268.024414,367.123016 266.020203,384.135834 
	C265.155029,391.479950 266.363983,398.606384 273.005463,403.312683 
	C283.209839,410.543671 295.884552,408.005249 302.500549,397.426331 
	C304.337646,394.488800 305.602386,391.189301 307.085907,388.035248 
	C316.132446,368.801727 324.093231,348.963196 334.428009,330.449585 
	C355.887665,292.007050 385.720581,261.465454 424.979614,240.731964 
	C433.937653,236.001038 433.985596,236.085342 431.313293,226.368073 
	C431.231323,226.069962 430.938965,225.829697 430.591003,225.351105 
	C429.258942,225.351105 427.775940,225.355469 426.292908,225.350479 
	C393.515259,225.240036 360.737640,225.127518 327.959991,225.017838 
	C316.965454,224.981064 306.286560,226.683182 299.168518,235.889450 
	C295.098694,241.153229 291.463501,247.472260 289.947174,253.865173 
	C283.771973,279.900513 278.490753,306.147888 272.733826,333.179993 
M276.897247,516.664307 
	C280.669250,534.403503 284.389526,552.153870 288.230316,569.878113 
	C291.082336,583.039673 293.590057,596.305176 297.161530,609.273682 
	C301.240540,624.085144 311.605560,632.476990 326.092590,633.461914 
	C334.698029,634.047058 343.359375,633.855408 351.996246,633.916016 
	C356.725922,633.949280 360.365845,631.902466 362.478271,627.584045 
	C364.682251,623.078491 362.948395,619.345154 360.246490,615.593262 
	C353.359100,606.029419 346.185883,596.620789 340.004883,586.608215 
	C320.309814,554.704285 306.270355,520.567932 301.607330,483.089569 
	C300.255310,472.222687 300.214020,461.198853 299.214722,450.279633 
	C298.602325,443.588318 295.211365,439.538818 288.963470,439.397430 
	C283.489807,439.273560 277.782379,440.471741 272.531311,442.174774 
	C267.743744,443.727509 265.550323,448.280945 265.191925,453.199921 
	C264.928253,456.818878 264.923553,460.592865 265.647705,464.124634 
	C269.188812,481.394806 273.013275,498.606903 276.897247,516.664307 
M768.957336,716.803711 
	C774.339172,719.716125 779.839661,719.769043 784.203796,715.470032 
	C790.075989,709.685425 796.100647,703.767212 800.603027,696.944885 
	C808.258362,685.344849 806.819580,678.969788 796.529053,669.518860 
	C782.577698,656.705750 768.697937,643.814514 754.714111,631.037109 
	C747.968262,624.873169 741.275513,618.618652 734.166931,612.891418 
	C722.825928,603.754089 712.970886,604.811768 703.179199,615.708435 
	C701.625793,617.437073 700.163025,619.258057 698.777649,621.124878 
	C690.202393,632.680359 690.936646,643.134888 701.140137,653.188782 
	C711.565552,663.461243 721.933655,673.799744 732.607117,683.810425 
	C744.358276,694.831848 756.428772,705.512817 768.957336,716.803711 
z"/>
<path fill="#232020" opacity="1.000000" stroke="none" 
	d="
M972.468628,981.000000 
	C961.895020,978.214172 952.108521,974.816528 944.260864,967.389648 
	C926.869629,950.930908 909.340759,934.616394 892.044617,918.058594 
	C869.326416,896.310059 846.444519,874.715881 824.270508,852.421143 
	C808.694153,836.759949 793.684448,820.464966 779.345154,803.664856 
	C767.023865,789.229065 768.286926,777.080322 781.792542,763.663147 
	C802.927795,742.666138 824.106812,721.712402 845.373169,700.848267 
	C852.506531,693.849792 860.591614,688.300781 871.177490,692.149048 
	C875.552124,693.739380 879.849365,696.586182 883.165833,699.883423 
	C919.537476,736.044983 955.768677,772.348694 991.908020,808.742798 
	C1009.726685,826.687012 1027.290527,844.884521 1044.939697,862.996765 
	C1054.199097,872.499146 1060.657593,883.556641 1063.656128,896.837769 
	C1064.000000,903.354431 1064.000000,909.708801 1063.663452,916.699524 
	C1060.700195,924.464722 1058.689819,931.900024 1055.327026,938.662842 
	C1046.534180,956.346191 1033.543335,969.895752 1014.453613,976.555054 
	C1009.103333,978.421448 1003.491760,979.539001 998.000000,981.000000 
	C989.645752,981.000000 981.291504,981.000000 972.468628,981.000000 
z"/>
<path fill="#231F20" opacity="1.000000" stroke="none" 
	d="
M1.000000,452.468384 
	C6.158647,441.819824 15.158691,439.645660 25.579428,439.750458 
	C50.717640,440.003357 75.858696,439.965057 100.998100,440.123352 
	C103.203629,440.137238 106.020569,438.864380 107.168312,442.524139 
	C107.349319,443.101349 110.215202,443.048706 111.815002,442.936218 
	C129.221741,441.711914 146.607605,439.863861 164.033020,439.362579 
	C173.567352,439.088287 183.384918,440.101044 192.688004,442.226379 
	C209.271240,446.014801 218.182693,456.796753 219.858459,473.847595 
	C220.865204,484.091309 221.349426,494.426605 221.344376,504.720367 
	C221.336380,521.036987 226.887268,535.974976 231.365784,551.299561 
	C237.196701,571.251770 242.038940,591.494629 247.178925,611.644958 
	C247.826538,614.183838 247.858124,616.917664 247.899933,619.565491 
	C247.991898,625.388306 245.332550,629.676758 239.696213,631.242432 
	C235.592621,632.382141 231.218277,633.052185 226.962570,633.062317 
	C176.969421,633.181763 126.975616,633.048157 76.982666,633.202698 
	C65.691597,633.237671 56.929253,628.948853 50.597038,619.805298 
	C38.086720,601.740906 29.484224,581.746887 22.294188,561.114563 
	C12.784091,533.824646 6.997543,505.652496 2.790646,477.120758 
	C2.549061,475.482300 2.104979,473.873688 1.377569,472.125610 
	C1.000000,465.645599 1.000000,459.291199 1.000000,452.468384 
z"/>
<path fill="#231F20" opacity="1.000000" stroke="none" 
	d="
M35.021950,403.707947 
	C29.613588,403.420898 24.122042,403.629608 18.814962,402.739014 
	C9.090682,401.107239 3.696795,394.720032 1.345843,385.131348 
	C1.000000,380.643097 1.000000,376.286194 1.000002,371.464661 
	C2.602894,363.461517 4.330673,355.947052 5.787157,348.380371 
	C12.257068,314.768280 22.464243,282.379303 36.746861,251.238388 
	C44.845078,233.581543 58.153477,224.967636 77.613129,225.146652 
	C119.564941,225.532562 161.519272,225.646683 203.472656,225.854767 
	C211.104767,225.892609 218.761353,225.459030 226.364258,225.928864 
	C239.374802,226.732880 244.814651,233.406662 242.061737,246.210327 
	C239.479782,258.218811 235.545181,269.933319 232.299744,281.802887 
	C223.068329,315.564972 216.896255,349.896667 213.045731,384.674377 
	C211.531082,398.354523 204.988297,403.910034 191.166687,403.915802 
	C186.336639,403.917816 181.506577,403.910614 176.230545,403.539062 
	C175.472717,403.292664 175.160873,403.414825 174.849014,403.536987 
	C154.124329,403.659363 133.399643,403.781738 112.221664,403.543915 
	C111.455421,403.341614 111.142448,403.499512 110.829475,403.657410 
	C109.803566,403.582611 108.777657,403.507843 107.249924,403.026306 
	C106.154030,402.790039 105.559944,402.960510 104.965858,403.130981 
	C83.955971,403.224731 62.946087,403.318481 41.388145,403.092773 
	C40.549931,402.893890 40.259777,403.014435 39.969620,403.134979 
	C39.289631,403.302673 38.609638,403.470367 37.440983,403.299103 
	C36.308865,403.209381 35.665405,403.458649 35.021950,403.707947 
z"/>
<path fill="#231F20" opacity="1.000000" stroke="none" 
	d="
M456.531464,0.999997 
	C462.211182,2.923252 467.541840,4.577540 472.608002,6.827353 
	C482.304565,11.133457 489.735687,18.113035 495.442017,27.049623 
	C520.278992,65.946510 538.885742,107.836739 555.017456,150.913467 
	C556.934937,156.033859 558.873718,161.211884 560.056274,166.529160 
	C563.178711,180.570038 557.232178,187.996109 542.851685,188.345398 
	C535.691345,188.519302 528.523193,188.368622 521.358582,188.367813 
	C499.212585,188.365326 477.066528,188.406174 454.920654,188.352097 
	C427.434326,188.285004 399.948242,188.095566 372.461945,188.050369 
	C361.638519,188.032578 350.814423,188.377502 339.991119,188.351593 
	C322.662964,188.310135 316.338287,180.949707 322.259857,164.768936 
	C329.615082,144.670609 338.250793,124.945641 347.698578,105.730644 
	C361.976135,76.692749 379.913940,49.857391 399.825043,24.312637 
	C409.162506,12.333180 420.820709,4.663297 435.819519,1.335130 
	C442.687653,1.000000 449.375275,1.000000 456.531464,0.999997 
z"/>
<path fill="#FCFBFB" opacity="1.000000" stroke="none" 
	d="
M998.468628,981.000000 
	C1003.491760,979.539001 1009.103333,978.421448 1014.453613,976.555054 
	C1033.543335,969.895752 1046.534180,956.346191 1055.327026,938.662842 
	C1058.689819,931.900024 1060.700195,924.464722 1063.663452,917.167908 
	C1064.000000,938.261292 1064.000000,959.522583 1064.000000,981.000000 
	C1042.312866,981.000000 1020.625122,981.000000 998.468628,981.000000 
z"/>
<path fill="#231F20" opacity="1.000000" stroke="none" 
	d="
M402.759399,611.253784 
	C377.892914,589.238403 358.343109,563.541992 347.472382,532.519226 
	C319.593994,452.960144 331.698944,379.511658 387.178192,315.706390 
	C430.966370,265.346680 488.548431,243.513962 554.834778,247.232544 
	C619.201111,250.843430 669.316040,281.667328 706.202209,333.750916 
	C735.931091,375.728241 748.583130,423.047638 744.570557,474.321991 
	C741.023499,519.648926 721.920349,558.455261 691.492249,591.725281 
	C662.593201,623.323364 627.518127,645.519226 585.685791,655.219421 
	C517.800659,670.960938 456.802490,655.785461 402.759399,611.253784 
z"/>
<path fill="#242021" opacity="1.000000" stroke="none" 
	d="
M873.958435,403.140564 
	C857.663330,403.246368 841.368164,403.347015 825.073120,403.462189 
	C821.747192,403.485687 818.421692,403.563721 814.518860,403.343811 
	C813.672424,403.267395 813.403015,403.463806 813.133606,403.660217 
	C805.669983,403.588806 798.186890,403.832031 790.747192,403.372650 
	C779.455017,402.675354 772.648438,396.117401 769.151733,385.661255 
	C761.645630,363.215759 751.928650,341.786804 739.526428,321.603882 
	C717.665833,286.028748 688.641846,257.881317 652.210205,237.417114 
	C651.068787,236.775970 649.944641,236.104080 648.202759,235.092422 
	C649.868347,231.785904 651.465332,228.615524 653.630432,225.823441 
	C655.159729,226.039429 656.121033,225.877121 657.082275,225.714844 
	C659.064392,225.595398 661.046448,225.372314 663.028625,225.371628 
	C719.026184,225.352234 775.023804,225.418930 831.021118,225.301727 
	C842.409790,225.277893 851.070251,229.882919 856.794861,239.487198 
	C867.422363,257.317261 874.541748,276.697998 880.841675,296.372101 
	C889.238708,322.595459 894.539001,349.524139 898.583618,376.718811 
	C898.828186,378.363159 899.000610,380.028870 899.052795,381.689514 
	C899.484619,395.438782 893.671204,401.955017 879.231689,402.879822 
	C877.048828,402.721710 875.503601,402.931122 873.958435,403.140564 
z"/>
<path fill="#232021" opacity="1.000000" stroke="none" 
	d="
M541.554138,10.437389 
	C545.841797,9.587350 550.036316,7.873197 553.792725,8.558915 
	C631.202820,22.689863 699.183655,56.171680 756.791016,109.780594 
	C774.646790,126.397057 790.668945,144.995621 807.329529,162.874115 
	C810.343323,166.108170 812.832581,170.035049 814.761597,174.029587 
	C817.898865,180.526230 815.546387,184.962967 808.441284,186.668671 
	C805.558350,187.360779 802.518921,187.681244 799.549377,187.689270 
	C772.076050,187.763596 744.602112,187.827667 717.129150,187.700348 
	C697.168396,187.607849 677.204834,187.381073 657.251465,186.866837 
	C651.473389,186.717926 645.686584,185.584488 639.972107,184.531540 
	C619.996338,180.850891 608.106506,167.308823 600.024109,150.105835 
	C589.849670,128.450058 581.039917,106.147713 570.683289,84.584496 
	C561.402222,65.260696 550.883911,46.527874 540.785034,27.601788 
	C536.871399,20.267324 536.815125,16.448746 541.554138,10.437389 
z"/>
<path fill="#242021" opacity="1.000000" stroke="none" 
	d="
M376.974670,666.318726 
	C396.750366,664.043701 415.714539,667.972351 434.434906,673.810364 
	C455.532898,680.389771 476.514404,687.389893 497.792114,693.327026 
	C509.122620,696.488586 521.045898,697.458618 532.567139,700.021912 
	C545.398621,702.876648 548.916565,708.640625 544.209778,721.052612 
	C538.557312,735.958191 531.793335,750.458679 525.136475,764.962891 
	C516.123108,784.601501 506.893829,804.144348 497.499695,823.603943 
	C487.506653,844.304199 470.430389,855.032715 447.832214,855.622742 
	C430.414856,856.077393 415.056183,849.310120 405.406982,834.411560 
	C391.676880,813.212036 378.255035,791.692322 366.517029,769.355408 
	C353.540039,744.660767 342.604065,718.893066 330.803711,693.581299 
	C329.750031,691.321167 328.807678,689.002930 327.930817,686.667664 
	C323.357147,674.487061 327.225128,668.207520 340.836853,667.157715 
	C350.533325,667.673889 359.539490,667.819885 368.546265,667.876709 
	C369.016113,667.879700 369.490753,667.123352 369.963135,666.720520 
	C370.430939,666.616516 370.898743,666.512512 371.836365,666.841492 
	C373.862366,666.955933 375.418518,666.637329 376.974670,666.318726 
z"/>
<path fill="#232021" opacity="1.000000" stroke="none" 
	d="
M303.371338,19.325722 
	C316.600830,15.762928 329.447327,12.324872 342.298309,8.903589 
	C343.581421,8.561987 344.881287,8.257892 346.191162,8.046857 
	C351.187225,7.241957 355.486389,8.305202 358.158020,13.004352 
	C360.752319,17.567577 359.198547,21.603655 356.350830,25.457685 
	C349.730133,34.417942 342.908600,43.242725 336.605804,52.422676 
	C312.058777,88.175026 291.019714,125.851624 274.894287,166.184952 
	C268.086700,183.212204 257.804962,189.449661 239.069717,188.095444 
	C236.418045,187.903778 233.742432,188.038300 231.077866,188.031006 
	C197.773407,187.939804 164.468964,187.802597 131.164474,187.791168 
	C121.871613,187.787994 112.576897,188.099670 103.286240,188.375351 
	C96.357414,188.580948 90.280701,187.170456 87.044876,180.217773 
	C83.810059,173.267273 86.633453,167.391495 91.178749,162.421600 
	C104.200264,148.183655 117.138100,133.839661 130.752411,120.178734 
	C179.274902,71.490135 237.625366,39.433609 303.371338,19.325722 
z"/>
<path fill="#232021" opacity="1.000000" stroke="none" 
	d="
M132.966919,669.849854 
	C172.060318,669.087219 210.659149,668.306702 249.259277,667.595520 
	C252.410004,667.537537 255.612732,667.690063 258.715881,668.201965 
	C265.318970,669.291138 270.087555,672.549988 273.168091,678.986084 
	C294.959259,724.513672 320.608459,767.890076 347.244476,810.703186 
	C354.540649,822.430603 361.866241,834.139771 369.165833,845.865112 
	C369.852692,846.968384 370.449036,848.127991 371.700623,850.350220 
	C359.417480,847.786316 348.073822,845.633728 336.832916,843.036438 
	C274.781952,828.699402 218.157867,802.878113 168.664902,762.431396 
	C147.543365,745.170471 126.135323,728.108765 108.347458,707.220642 
	C102.663338,700.545837 97.418312,693.319275 93.100182,685.705566 
	C88.062286,676.822632 90.850327,671.582214 101.042488,670.659119 
	C111.458214,669.715698 121.991112,670.065918 132.966919,669.849854 
z"/>
<path fill="#232021" opacity="1.000000" stroke="none" 
	d="
M777.022522,471.074738 
	C777.309143,470.040009 777.511902,469.405426 777.688171,468.763550 
	C783.234436,448.574036 789.815247,442.473267 810.416992,441.854736 
	C832.835938,441.181671 855.295166,441.852966 877.736877,441.941040 
	C878.235840,441.942993 878.736938,441.956482 879.233276,442.004333 
	C895.849121,443.607086 901.968018,449.411163 900.717896,466.016235 
	C899.486145,482.376831 896.670776,498.685638 893.549927,514.823669 
	C885.047546,558.789246 867.610779,599.544739 847.574768,639.292725 
	C846.386108,641.650696 844.814575,643.859375 843.165344,645.934021 
	C834.976807,656.234314 826.145874,657.552429 816.115295,649.084351 
	C802.031860,637.194641 788.021301,625.162903 774.716858,612.422058 
	C761.473328,599.739624 753.057678,584.209534 752.502014,565.355408 
	C752.209290,555.425354 753.508301,545.268921 758.535522,536.871521 
	C769.067139,519.279358 770.668945,499.439972 774.947144,480.231567 
	C775.597961,477.309570 776.266174,474.391418 777.022522,471.074738 
z"/>
<path fill="#232021" opacity="1.000000" stroke="none" 
	d="
M686.066284,795.076843 
	C646.665466,817.616638 605.468567,834.580811 561.204773,843.516296 
	C555.392456,844.689636 549.303101,844.767456 543.336731,844.827942 
	C536.392395,844.898376 533.770630,841.123962 535.880615,834.374146 
	C536.863037,831.231567 538.308838,828.190002 539.875549,825.280884 
	C556.399353,794.598022 568.437073,761.947571 581.825378,729.889343 
	C586.690918,718.238708 591.127563,706.383911 599.616150,696.635498 
	C624.977051,667.510620 668.655334,664.211365 697.502258,690.031860 
	C708.990967,700.315308 719.187378,712.054932 729.802612,723.291809 
	C732.052246,725.673157 733.740723,728.651245 735.382690,731.528564 
	C741.840332,742.844849 741.104980,753.225342 731.161865,761.672668 
	C718.658508,772.295166 705.041321,781.608521 691.870361,791.440674 
	C690.143799,792.729675 688.213562,793.745728 686.066284,795.076843 
z"/>
<path fill="#242021" opacity="1.000000" stroke="none" 
	d="
M272.806946,332.748566 
	C278.490753,306.147888 283.771973,279.900513 289.947174,253.865173 
	C291.463501,247.472260 295.098694,241.153229 299.168518,235.889450 
	C306.286560,226.683182 316.965454,224.981064 327.959991,225.017838 
	C360.737640,225.127518 393.515259,225.240036 426.292908,225.350479 
	C427.775940,225.355469 429.258942,225.351105 430.591003,225.351105 
	C430.938965,225.829697 431.231323,226.069962 431.313293,226.368073 
	C433.985596,236.085342 433.937653,236.001038 424.979614,240.731964 
	C385.720581,261.465454 355.887665,292.007050 334.428009,330.449585 
	C324.093231,348.963196 316.132446,368.801727 307.085907,388.035248 
	C305.602386,391.189301 304.337646,394.488800 302.500549,397.426331 
	C295.884552,408.005249 283.209839,410.543671 273.005463,403.312683 
	C266.363983,398.606384 265.155029,391.479950 266.020203,384.135834 
	C268.024414,367.123016 270.468231,350.162018 272.806946,332.748566 
z"/>
<path fill="#242122" opacity="1.000000" stroke="none" 
	d="
M276.817383,516.251953 
	C273.013275,498.606903 269.188812,481.394806 265.647705,464.124634 
	C264.923553,460.592865 264.928253,456.818878 265.191925,453.199921 
	C265.550323,448.280945 267.743744,443.727509 272.531311,442.174774 
	C277.782379,440.471741 283.489807,439.273560 288.963470,439.397430 
	C295.211365,439.538818 298.602325,443.588318 299.214722,450.279633 
	C300.214020,461.198853 300.255310,472.222687 301.607330,483.089569 
	C306.270355,520.567932 320.309814,554.704285 340.004883,586.608215 
	C346.185883,596.620789 353.359100,606.029419 360.246490,615.593262 
	C362.948395,619.345154 364.682251,623.078491 362.478271,627.584045 
	C360.365845,631.902466 356.725922,633.949280 351.996246,633.916016 
	C343.359375,633.855408 334.698029,634.047058 326.092590,633.461914 
	C311.605560,632.476990 301.240540,624.085144 297.161530,609.273682 
	C293.590057,596.305176 291.082336,583.039673 288.230316,569.878113 
	C284.389526,552.153870 280.669250,534.403503 276.817383,516.251953 
z"/>
<path fill="#242021" opacity="1.000000" stroke="none" 
	d="
M768.658752,716.572876 
	C756.428772,705.512817 744.358276,694.831848 732.607117,683.810425 
	C721.933655,673.799744 711.565552,663.461243 701.140137,653.188782 
	C690.936646,643.134888 690.202393,632.680359 698.777649,621.124878 
	C700.163025,619.258057 701.625793,617.437073 703.179199,615.708435 
	C712.970886,604.811768 722.825928,603.754089 734.166931,612.891418 
	C741.275513,618.618652 747.968262,624.873169 754.714111,631.037109 
	C768.697937,643.814514 782.577698,656.705750 796.529053,669.518860 
	C806.819580,678.969788 808.258362,685.344849 800.603027,696.944885 
	C796.100647,703.767212 790.075989,709.685425 784.203796,715.470032 
	C779.839661,719.769043 774.339172,719.716125 768.658752,716.572876 
z"/>
<path fill="#0E0E0E" opacity="1.000000" stroke="none" 
	d="
M369.513916,666.590942 
	C369.490753,667.123352 369.016113,667.879700 368.546265,667.876709 
	C359.539490,667.819885 350.533325,667.673889 341.247742,667.228149 
	C350.333832,666.760437 359.699219,666.610901 369.513916,666.590942 
z"/>
<path fill="#0E0E0E" opacity="1.000000" stroke="none" 
	d="
M376.559875,666.295898 
	C375.418518,666.637329 373.862366,666.955933 372.174561,666.986389 
	C373.410309,666.556519 374.777710,666.414795 376.559875,666.295898 
z"/>
<path fill="#0F0F0F" opacity="1.000000" stroke="none" 
	d="
M874.373291,403.250427 
	C875.503601,402.931122 877.048828,402.721710 878.814209,402.806854 
	C877.618958,403.187714 876.203491,403.273987 874.373291,403.250427 
z"/>
<path fill="#0F0F0F" opacity="1.000000" stroke="none" 
	d="
M35.300026,403.782349 
	C35.665405,403.458649 36.308865,403.209381 37.093758,403.232971 
	C36.682827,403.622772 36.130466,403.739777 35.300026,403.782349 
z"/>
<path fill="#151112" opacity="1.000000" stroke="none" 
	d="
M656.688599,225.598022 
	C656.121033,225.877121 655.159729,226.039429 654.015930,225.886063 
	C654.653931,225.540680 655.474426,225.510941 656.688599,225.598022 
z"/>
<path fill="#0F0F0F" opacity="1.000000" stroke="none" 
	d="
M105.307312,403.224915 
	C105.559944,402.960510 106.154030,402.790039 106.892807,402.870331 
	C106.574585,403.187012 106.111671,403.252899 105.307312,403.224915 
z"/>
<path fill="#0F0F0F" opacity="1.000000" stroke="none" 
	d="
M813.407471,403.706696 
	C813.403015,403.463806 813.672424,403.267395 814.064087,403.296387 
	C814.018005,403.598969 813.849670,403.676056 813.407471,403.706696 
z"/>
<path fill="#0F0F0F" opacity="1.000000" stroke="none" 
	d="
M175.095459,403.653564 
	C175.160873,403.414825 175.472717,403.292664 175.831345,403.420898 
	C175.699387,403.704254 175.520645,403.737213 175.095459,403.653564 
z"/>
<path fill="#0F0F0F" opacity="1.000000" stroke="none" 
	d="
M111.085632,403.744446 
	C111.142448,403.499512 111.455421,403.341614 111.817947,403.443604 
	C111.692276,403.746155 111.517036,403.788818 111.085632,403.744446 
z"/>
<path fill="#0F0F0F" opacity="1.000000" stroke="none" 
	d="
M40.235935,403.231049 
	C40.259777,403.014435 40.549931,402.893890 40.938614,402.957397 
	C40.858849,403.203308 40.680550,403.265198 40.235935,403.231049 
z"/>
</svg>